<ttFont>
          <CharString index="0">
            hstemhm
            40 83 223 80 hintmask 01110011
            -101 callsubr
            hintmask 10110011
            -53 callsubr
            hintmask 01110011
            4 -60 rlineto
            hintmask 10110011
            -83 callsubr
            return
          </CharString>
          <CharString index="1">
            70 360 rmoveto
            -279 127 -96 132 132 127 96 279 -104 callsubr
            return
          </CharString>
          <CharString index="2">
            hstemhm
            3 callsubr
            hintmask 11001100
            -106 callsubr
            return
          </CharString>
          <CharString index="3">
            279 -126 96 -133 -33 callsubr
            vhcurveto
            87 hmoveto
            -72 callsubr
            -75 callsubr
            return
          </CharString>
          <CharString index="4">
            409 -26 callsubr
            -77 -62 -61 callsubr
            -121 -95 -86 -204 -188 89 -87 130 94 61 46 55 35 vhcurveto
            -193 402 -70 callsubr
            return
          </CharString>
          <CharString index="5">
            -45 callsubr
            105 114 57 223 223 -117 62 -102 -9 callsubr
            vhcurveto
            -82 callsubr
            return
          </CharString>
          <CharString index="6">
            426 hmoveto
            394 vlineto
            91 -58 70 -123 -93 -65 -46 -72 -32 vhcurveto
            73 -28 rlineto
            54 20 38 30 57 hhcurveto
            75 28 -47 -64 hvcurveto
            -45 vlineto
            -215 -4 -91 -72 -117 vvcurveto
            return
          </CharString>
          <CharString index="7">
            hstemhm
            34 callsubr
            hintmask 11001100
            -102 callsubr
            return
          </CharString>
          <CharString index="8">
            -20 hstemhm
            63 82 251 83 hintmask 11100110
            -103 callsubr
            hintmask 00011000
            return
          </CharString>
          <CharString index="9">
            -20 -105 callsubr
            hintmask 00110000
            return
          </CharString>
          <CharString index="10">
            543 hmoveto
            -214 720 rlineto
            -104 hlineto
            -215 -720 -88 callsubr
            return
          </CharString>
          <CharString index="11">
            -20 -100 callsubr
            hintmask 00110000
            return
          </CharString>
          <CharString index="12">
            rmoveto
            hintmask 00100000
            -91 callsubr
            hintmask 00010000
            -94 callsubr
          </CharString>
          <CharString index="13">
            -46 -10 34 -64 hhcurveto
            -35 -38 -20 -25 -24 hvcurveto
            34 -48 rlineto
            15 18 15 10 26 hhcurveto
            endchar
          </CharString>
          <CharString index="14">
            hstemhm
            hintmask 11100000
            -97 callsubr
            return
          </CharString>
          <CharString index="15">
            7 callsubr
            hintmask 10100110
            -86 callsubr
            hintmask 01100110
            4 -64 rlineto
            70 540 hlineto
            hintmask 00011000
            return
          </CharString>
          <CharString index="16">
            46 10 -34 64 hhcurveto
            35 38 20 25 24 hvcurveto
            -34 48 rlineto
            -15 -18 -15 -10 -26 hhcurveto
            return
          </CharString>
          <CharString index="17">
            542 hmoveto
            -179 301 rlineto
            69 29 57 60 108 vvcurveto
            153 -94 69 -155 vhcurveto
            -150 89 callsubr
            282 105 hlineto
            161 -282 rlineto
            -202 655 rmoveto
            119 44 -56 -101 -101 -56 -50 -104 hvcurveto
            -67 308 hlineto
            return
          </CharString>
          <CharString index="18">
            85 -15 callsubr
            -511 vlineto
            -146 80 -78 140 140 79 78 146 vhcurveto
            511 -81 -510 vlineto
            -99 -41 -58 -97 -97 -38 58 99 vhcurveto
            510 vlineto
            return
          </CharString>
          <CharString index="19">
            rlineto
            84 hlineto
            54 193 rlineto
            252 hlineto
            53 -193 rlineto
            -177 642 rmoveto
            106 -384 rlineto
            -215 hlineto
            return
          </CharString>
          <CharString index="20">
            -20 hstemhm
            85 85 273 81 hintmask 11001100
            -89 callsubr
            hintmask 00110000
            return
          </CharString>
          <CharString index="21">
            376 540 rmoveto
            -402 vlineto
            -54 -31 -35 -29 -49 hhcurveto
            -60 -41 27 106 hvcurveto
            352 -80 -358 vlineto
            -144 72 -48 96 54 50 27 47 30 vhcurveto
            return
          </CharString>
          <CharString index="22">
            rmoveto
            90 -95 -90 vlineto
            300 hmoveto
            90 -95 -90 vlineto
            endchar
          </CharString>
          <CharString index="23">
            -20 -93 callsubr
            hintmask 00011000
            return
          </CharString>
          <CharString index="24">
            -130 54 rmoveto
            -57 -47 28 68 81 71 41 152 2 hvcurveto
            -160 vlineto
            -34 -30 -38 -26 -51 hhcurveto
            return
          </CharString>
          <CharString index="25">
            84 hmoveto
            152 57 71 79 79 57 -69 -154 -154 -52 -64 -83 -83 -54 66 152 vhcurveto
            return
          </CharString>
          <CharString index="26">
            -52 callsubr
            54 -21 167 -20 -107 callsubr
            hintmask 00001100
            return
          </CharString>
          <CharString index="27">
            rmoveto
            122 -70 36 48 -122 91 rlineto
            -72 hlineto
            -122 -91 36 -48 rlineto
            endchar
          </CharString>
          <CharString index="28">
            448 540 rmoveto
            -77 hlineto
            -131 -482 -146 482 rlineto
            -84 hlineto
            175 -540 rlineto
            35 hlineto
            -94 -23 -15 -30 -43 hhcurveto
            -17 -16 5 10 -19 hvcurveto
            -28 -53 rlineto
            -13 19 32 -11 31 hhcurveto
            94 27 67 116 33 hvcurveto
            return
          </CharString>
          <CharString index="29">
            42 callsubr
            hintmask 11100100
            -77 callsubr
            hintmask 00011000
            return
          </CharString>
          <CharString index="30">
            410 399 rmoveto
            -235 253 265 68 -350 -720 350 68 -265 265 235 hlineto
            return
          </CharString>
          <CharString index="31">
            rmoveto
            120 -79 38 47 -122 101 rlineto
            -72 hlineto
            -122 -101 38 -47 rlineto
            return
          </CharString>
          <CharString index="32">
            -201 -58 -109 -114 -114 -58 108 202 vhcurveto
            return
          </CharString>
          <CharString index="33">
            -22 -18 callsubr
            54 -21 167 -99 callsubr
            return
          </CharString>
          <CharString index="34">
            -76 callsubr
            endchar
          </CharString>
          <CharString index="35">
            202 58 108 114 114 58 -109 -201 return
          </CharString>
          <CharString index="36">
            8 callsubr
            44 39 callsubr
            -98 callsubr
            return
          </CharString>
          <CharString index="37">
            rmoveto
            71 41 -45 -130 5 hvcurveto
            -249 hlineto
            121 10 48 54 74 hhcurveto
            return
          </CharString>
          <CharString index="38">
            -47 callsubr
            -49 vmoveto
            67 56 42 72 15 callsubr
            -72 56 -42 67 hvcurveto
            endchar
          </CharString>
          <CharString index="39">
            9 callsubr
            54 -21 167 -96 callsubr
            return
          </CharString>
          <CharString index="40">
            51 callsubr
            89 -21 167 -92 callsubr
            return
          </CharString>
          <CharString index="41">
            rmoveto
            24 -44 175 78 -43 69 rlineto
            endchar
          </CharString>
          <CharString index="42">
            42 callsubr
            227 87 hintmask 11100110
            -90 callsubr
            hintmask 00011000
            return
          </CharString>
          <CharString index="43">
            -54 callsubr
            369 vlineto
            139 -64 47 -93 -53 -62 -24 -62 -42 vhcurveto
            return
          </CharString>
          <CharString index="44">
            34 hhcurveto
            90 44 72 82 hvcurveto
            574 -80 -569 vlineto
            -65 -21 -27 -47 -16 -21 5 8 -19 vhcurveto
            return
          </CharString>
          <CharString index="45">
            rlineto
            49 -6 37 -13 -30 vvcurveto
            -35 -26 -9 -31 -20 -24 7 7 -15 vhcurveto
            -25 -49 rlineto
            -14 25 34 -10 38 hhcurveto
            68 49 41 58 hvcurveto
            endchar
          </CharString>
          <CharString index="46">
            48 152 -3 hvcurveto
            334 hlineto
            216 -67 85 -133 return
          </CharString>
          <CharString index="47">
            -20 hstemhm
            hintmask 11100000
            -79 callsubr
            hintmask 00011000
            -120 return
          </CharString>
          <CharString index="48">
            436 -15 callsubr
            -599 vlineto
            -233 599 rlineto
            -113 -720 77 608 hlineto
            234 -608 rlineto
            110 720 hlineto
            return
          </CharString>
          <CharString index="49">
            1 callsubr
            79 39 callsubr
            -84 callsubr
            return
          </CharString>
          <CharString index="50">
            28 callsubr
            79 39 callsubr
            -87 callsubr
            return
          </CharString>
          <CharString index="51">
            rmoveto
            34 -43 166 98 -55 69 rlineto
            endchar
          </CharString>
          <CharString index="52">
            rmoveto
            -82 -32 -32 -53 -34 -33 20 32 -16 vhcurveto
            -65 -44 rlineto
            -41 24 52 -37 73 hhcurveto
            103 66 63 116 hvcurveto
            555 -85 vlineto
            return
          </CharString>
          <CharString index="53">
            57 callsubr
            400 vlineto
            -46 callsubr
            return
          </CharString>
          <CharString index="54">
            -111 87 -43 78 73 46 30 40 29 vhcurveto
            return
          </CharString>
          <CharString index="55">
            -50 -10 64 -33 -21 274 63 156 62 return
          </CharString>
          <CharString index="56">
            44 callsubr
            hintmask 11001000
            -44 callsubr
            return
          </CharString>
          <CharString index="57">
            21 callsubr
            228 80 hintmask 11000110
            -64 callsubr
            hintmask 10100110
            -6 71 69 callsubr
            return
          </CharString>
          <CharString index="58">
            rmoveto
            41 14 -29 -28 -32 -24 -30 -21 -21 hvcurveto
            -132 -134 rlineto
            -60 251 60 -160 vlineto
            79 79 rlineto
            43 43 40 42 50 vvcurveto
            83 -59 33 -66 -72 -43 -38 -52 -18 vhcurveto
            69 -18 rlineto
            25 5 21 27 32 hhcurveto
            return
          </CharString>
          <CharString index="59">
            -20 -51 callsubr
            hintmask 00110000
            return
          </CharString>
          <CharString index="60">
            rmoveto
            -33 -27 22 43 43 27 22 33 33 27 -22 -43 -43 -27 -22 -33 hvcurveto
            return
          </CharString>
          <CharString index="61">
            55 36 44 35 53 hhcurveto
            64 31 -31 -105 hvcurveto
            -354 80 return
          </CharString>
          <CharString index="62">
            63 270 rmoveto
            -221 118 -59 102 return
          </CharString>
          <CharString index="63">
            -43 callsubr
            85 720 vlineto
            return
          </CharString>
          <CharString index="64">
            90 -15 callsubr
            -720 return
          </CharString>
          <CharString index="65">
            21 -24 callsubr
            return
          </CharString>
          <CharString index="66">
            41 13 20 33 34 vvcurveto
            73 -62 32 -57 -62 -49 -30 -59 -21 vhcurveto
            66 -20 rlineto
            32 7 20 21 32 hhcurveto
            33 20 -23 -27 -38 -23 -20 -29 hvcurveto
            -18 -51 13 hlineto
            36 31 -10 -49 -40 -19 -27 -41 hvcurveto
            endchar
          </CharString>
          <CharString index="67">
            rmoveto
            hintmask 00010000
            -91 callsubr
            hintmask 00001000
            -94 callsubr
          </CharString>
          <CharString index="68">
            rmoveto
            hintmask 10000000
            -91 callsubr
            hintmask 01000000
            -94 callsubr
          </CharString>
          <CharString index="69">
            rmoveto
            47 hlineto
            75 154 rlineto
            94 -100 -95 vlineto
            return
          </CharString>
          <CharString index="70">
            654 240 rmoveto
            -11 -63 rlineto
            -48 -82 vlineto
            85 242 -60 18 -92 -256 rlineto
            -62 147 -71 66 71 56 58 -56 111 vlineto
            -17 541 27 callsubr
            return
          </CharString>
          <CharString index="71">
            -21 540 -20 return
          </CharString>
          <CharString index="72">
            rmoveto
            -43 -69 175 -78 24 44 rlineto
            endchar
          </CharString>
          <CharString index="73">
            rmoveto
            -55 -69 166 -98 34 43 rlineto
            endchar
          </CharString>
          <CharString index="74">
            -133 -126 -96 -279 return
          </CharString>
          <CharString index="75">
            -170 rmoveto
            -13 28 32 -5 -63 callsubr
            210 746 38 callsubr
            endchar
          </CharString>
          <CharString index="76">
            hstemhm
            90 77 269 75 hintmask 11001100
            -59 callsubr
            return
          </CharString>
          <CharString index="77">
            rmoveto
            61 -74 319 -75 vlineto
            -101 -61 30 -53 75 44 rlineto
            -249 -90 -61 vlineto
            endchar
          </CharString>
          <CharString index="78">
            -56 -24 -34 -41 -73 hhcurveto
            -87 -82 71 236 239 77 69 91 63 37 -29 -54 21 hvcurveto
            75 29 rlineto
            65 -30 -62 56 -104 hhcurveto
            -114 -142 -75 -300 return
          </CharString>
          <CharString index="79">
            21 callsubr
            hintmask 11001000
            57 callsubr
            -10 callsubr
            return
          </CharString>
          <CharString index="80">
            21 -36 callsubr
            return
          </CharString>
          <CharString index="81">
            130 rmoveto
            -32 -18 -41 -44 -63 hhcurveto
            return
          </CharString>
          <CharString index="82">
            hmoveto
            369 vlineto
            57 22 30 50 52 hhcurveto
            16 12 -2 -3 12 hvcurveto
            20 75 rlineto
            return
          </CharString>
          <CharString index="83">
            -21 720 -20 return
          </CharString>
          <CharString index="84">
            57 callsubr
            285 vlineto
            233 -285 rlineto
            102 hlineto
            -250 305 217 26 callsubr
            420 -80 -735 vlineto
            return
          </CharString>
          <CharString index="85">
            -153 -38 callsubr
            return
          </CharString>
          <CharString index="86">
            rmoveto
            89 -100 -90 vlineto
            -10 -120 rlineto
            56 hlineto
            endchar
          </CharString>
          <CharString index="87">
            419 -15 callsubr
            -159 -344 -157 344 rlineto
            -93 hlineto
            206 -432 rlineto
            -288 84 288 vlineto
            202 432 rlineto
            return
          </CharString>
          <CharString index="88">
            198 669 rmoveto
            64 39 -44 -159 24 callsubr
            hvcurveto
            20 callsubr
          </CharString>
          <CharString index="89">
            -10 64 200 64 175 62 return
          </CharString>
          <CharString index="90">
            -316 -27 callsubr
            return
          </CharString>
          <CharString index="91">
            -68 -170 rmoveto
            -12 29 31 -6 -63 callsubr
            return
          </CharString>
          <CharString index="92">
            720 rmoveto
            return
          </CharString>
          <CharString index="93">
            113 -65 56 -71 -71 -64 -56 -113 vhcurveto
            70 hmoveto
            80 26 32 39 39 28 -32 -80 -80 -29 -32 -38 -38 -27 32 80 vhcurveto
            return
          </CharString>
          <CharString index="94">
            rmoveto
            -117 205 -54 -20 82 -188 -72 -202 54 -20 rlineto
            return
          </CharString>
          <CharString index="95">
            rmoveto
            54 20 -72 202 82 188 -54 20 -117 -205 rlineto
            return
          </CharString>
          <CharString index="96">
            -56 0 68 265 66 253 68 return
          </CharString>
          <CharString index="97">
            540 -80 -540 vlineto
            return
          </CharString>
          <CharString index="98">
            -105 -115 -64 -221 return
          </CharString>
          <CharString index="99">
            -6 callsubr
            79 39 callsubr
            -48 callsubr
            return
          </CharString>
          <CharString index="100">
            -17 callsubr
            89 -21 167 -20 -28 callsubr
            hintmask 00110000
            return
          </CharString>
          <CharString index="101">
            -291 -42 callsubr
            return
          </CharString>
          <CharString index="102">
            rmoveto
            -36 -19 28 26 -5 hvcurveto
            -68 -20 rlineto
            -43 11 46 -46 72 hhcurveto
            74 61 42 75 59 -36 27 -38 8 hvcurveto
            return
          </CharString>
          <CharString index="103">
            32 callsubr
            167 101 -12 callsubr
            return
          </CharString>
          <CharString index="104">
            -42 callsubr
            hstem
            return
          </CharString>
          <CharString index="105">
            90 callsubr
            193 65 return
          </CharString>
          <CharString index="106">
            160 -180 rmoveto
            215 vlineto
            -28 27 38 -17 46 5 callsubr
            return
          </CharString>
          <CharString index="107">
            56 vvcurveto
            55 44 25 47 58 30 -26 -44 19 vhcurveto
            71 30 rlineto
            64 -27 -62 38 -88 hhcurveto
            -90 -82 -53 -98 return
          </CharString>
          <CharString index="108">
            -2 callsubr
            462 -20 return
          </CharString>
          <CharString index="109" raw="1">
            9b0a120b   
          </CharString>
          <CharString index="110">
            70 87 344 87 return
          </CharString>
          <CharString index="111">
            668 rmoveto
            -120 79 -38 -47 122 -101 rlineto
            72 hlineto
            122 101 -38 47 rlineto
            endchar
          </CharString>
          <CharString index="112">
            hhcurveto
            124 70 103 188 203 -71 71 -97 return
          </CharString>
          <CharString index="113">
            6 -18 -12 1 -18 hhcurveto
            -51 -43 -30 -59 -26 hvcurveto
            return
          </CharString>
          <CharString index="114">
            56 callsubr
            216 80 return
          </CharString>
          <CharString index="115">
            102 -15 65 620 65 return
          </CharString>
          <CharString index="116">
            9 -10 62 441 62 return
          </CharString>
          <CharString index="117">
            478 35 callsubr
            61 457 -38 callsubr
            return
          </CharString>
          <CharString index="118">
            rmoveto
            -122 70 -36 -48 122 -91 rlineto
            72 hlineto
            122 91 -36 48 rlineto
            endchar
          </CharString>
          <CharString index="119">
            hstem
            3 callsubr
            vstem
            70 360 rmoveto
            return
          </CharString>
          <CharString index="120">
            -57 -35 -33 -27 -57 hhcurveto
            -83 -53 66 152 return
          </CharString>
          <CharString index="121">
            rmoveto
            -47 hlineto
            -75 -154 rlineto
            -94 100 95 vlineto
            return
          </CharString>
          <CharString index="122">
            72 -56 42 -67 -67 -56 -42 -72 return
          </CharString>
          <CharString index="123">
            -21 167 -20 return
          </CharString>
          <CharString index="124">
            166 638 38 callsubr
            86 -638 rmoveto
            -10 callsubr
            return
          </CharString>
          <CharString index="125">
            vstem
            147 271 rmoveto
            25 callsubr
            vhcurveto
            62 45 return
          </CharString>
          <CharString index="126">
            rmoveto
            108 52 -60 -104 -109 -53 -57 -111 hvcurveto
            -75 330 hlineto
            endchar
          </CharString>
          <CharString index="127">
            317 vlineto
            46 34 37 28 47 hhcurveto
            endchar
          </CharString>
          <CharString index="128">
            hstemhm
            80 80 return
          </CharString>
          <CharString index="129">
            -131 287 72 hstem
            365 287 rmoveto
            72 -305 -72 vlineto
            endchar
          </CharString>
          <CharString index="130">
            -98 -186 62 145 -36 callsubr
            return
          </CharString>
          <CharString index="131">
            -173 -49 -63 -77 -31 -34 15 33 -30 return
          </CharString>
          <CharString index="132">
            152 56 68 82 48 33 -18 -50 34 return
          </CharString>
          <CharString index="133">
            235 rlineto
            -104 hlineto
            -198 -225 rlineto
            return
          </CharString>
          <CharString index="134">
            rmoveto
            -64 29 -447 -880 64 -29 rlineto
            return
          </CharString>
          <CharString index="135">
            53 -15 68 667 -20 return
          </CharString>
          <CharString index="136">
            -27 callsubr
            hstem
            return
          </CharString>
          <CharString index="137">
            -236 -99 -21 920 -20 hstem
            119 82 vstem
            119 800 rmoveto
            return
          </CharString>
          <CharString index="138">
            -21 282 65 308 65 return
          </CharString>
          <CharString index="139">
            122 -21 430 -20 hstem
            return
          </CharString>
          <CharString index="140">
            37 callsubr
            -15 -20 return
          </CharString>
          <CharString index="141">
            55 callsubr
            83 return
          </CharString>
          <CharString index="142">
            -21 248 -20 hstem
            return
          </CharString>
          <CharString index="143">
            rmoveto
            100 -100 -100 vlineto
            return
          </CharString>
          <CharString index="144">
            21 -21 490 65 return
          </CharString>
          <CharString index="145">
            rmoveto
            97 -92 -97 vlineto
            return
          </CharString>
          <CharString index="146">
            -21 147 return
          </CharString>
          <CharString index="147">
            166 70 -166 163 -78 -163 -166 -70 166 hlineto
            return
          </CharString>
          <CharString index="148">
            -142 rmoveto
            42 -24 37 -55 12 vhcurveto
            return
          </CharString>
          <CharString index="149">
            -20 44 callsubr
            return
          </CharString>
          <CharString index="150" raw="1">
            d30a120b   
          </CharString>
          <CharString index="151">
            hstemhm
            90 85 return
          </CharString>
          <CharString index="152">
            188 133 86 274 282 -133 78 -190 hvcurveto
            return
          </CharString>
          <CharString index="153">
            76 vlineto
            146 104 74 157 157 -102 72 -147 hvcurveto
            return
          </CharString>
          <CharString index="154">
            rmoveto
            164 74 -91 -206 -216 -73 -78 -163 hvcurveto
            -44 return
          </CharString>
          <CharString index="155">
            -43 callsubr
            362 74 -277 646 vlineto
            return
          </CharString>
          <CharString index="156">
            hstem
            90 85 239 87 84 callsubr
            return
          </CharString>
          <CharString index="157">
            -316 -188 67 661 -20 return
          </CharString>
          <CharString index="158">
            -20 -10 65 -34 -36 callsubr
            return
          </CharString>
          <CharString index="159">
            21 -21 670 65 hstem
            return
          </CharString>
          <CharString index="160">
            -249 -21 210 -20 return
          </CharString>
          <CharString index="161">
            rmoveto
            70 -410 -70 vlineto
            return
          </CharString>
          <CharString index="162">
            63 84 272 return
          </CharString>
          <CharString index="163">
            -20 21 callsubr
            return
          </CharString>
          <CharString index="164">
            160 hmoveto
            return
          </CharString>
          <CharString index="165">
            -21 228 -20 hstem
            25 63 120 63 vstem
            148 return
          </CharString>
          <CharString index="166">
            80 735 -144 hlineto
            -10 -65 rlineto
            74 hlineto
            endchar
          </CharString>
          <CharString index="167">
            -20 hstem
            175 643 rmoveto
            92 -100 -93 vlineto
            25 return
          </CharString>
          <CharString index="168">
            192 -213 rmoveto
            -64 -44 49 159 173 return
          </CharString>
          <CharString index="169">
            -3 callsubr
            90 return
          </CharString>
          <CharString index="170">
            -3 76 rlineto
            -73 -540 hlineto
            return
          </CharString>
          <CharString index="171">
            -21 148 -20 return
          </CharString>
          <CharString index="172">
            hlineto
            17 192 rlineto
            -71 hlineto
            -17 -192 rlineto
            return
          </CharString>
          <CharString index="173">
            409 vlineto
            49 31 36 32 50 hhcurveto
            64 31 return
          </CharString>
          <CharString index="174">
            70 163 -20 hstem
            231 78 vstem
            231 return
          </CharString>
          <CharString index="175">
            rmoveto
            -113 65 -54 70 70 66 54 113 return
          </CharString>
          <CharString index="176">
            rlineto
            -68 -540 hlineto
            return
          </CharString>
          <CharString index="177">
            64 callsubr
            hstemhm
            return
          </CharString>
          <CharString index="178">
            -159 -21 170 return
          </CharString>
          <CharString index="179">
            -21 90 -20 return
          </CharString>
          <CharString index="180">
            -282 779 39 callsubr
            -20 hstem
            return
          </CharString>
          <CharString index="181">
            -216 -134 -21 970 -20 hstem
            return
          </CharString>
          <CharString index="182">
            -216 -170 68 844 68 hstem
            return
          </CharString>
          <CharString index="183">
            -224 21 -21 476 64 13 -20 return
          </CharString>
          <CharString index="184">
            63 269 rmoveto
            -203 76 -76 97 return
          </CharString>
          <CharString index="185">
            -216 -170 60 860 60 hstem
            return
          </CharString>
          <CharString index="186">
            284 -78 -21 120 -21 71 58 return
          </CharString>
          <CharString index="187">
            vlineto
            -45 -34 -37 -25 -47 hhcurveto
            endchar
          </CharString>
          <CharString index="188">
            68 -34 68 hstemhm
            hintmask 01000000
            113 return
          </CharString>
          <CharString index="189">
            53 callsubr
            101 -21 return
          </CharString>
          <CharString index="190">
            -291 -79 -21 820 -20 hstem
            return
          </CharString>
          <CharString index="191">
            vstem
            -43 callsubr
            85 return
          </CharString>
          <CharString index="192">
            -16 120 -21 434 -20 hstem
            return
          </CharString>
          <CharString index="193">
            -21 139 -20 return
          </CharString>
          <CharString index="194">
            -20 hstem
            80 80 return
          </CharString>
          <CharString index="195">
            -20 hstem
            165 return
          </CharString>
          <CharString index="196">
            -720 85 return
          </CharString>
          <CharString index="197">
            -3 21 -21 return
          </CharString>
        <CharString name=".notdef">
          -8 0 68 584 68 hstem
          80 68 252 68 vstem
          80 hmoveto
          388 720 -388 hlineto
          68 -652 rmoveto
          584 252 -584 vlineto
          endchar
        </CharString>
        <CharString name=".null">
          endchar
        </CharString>
        <CharString name="A">
          1 callsubr
          hstem
          -97 callsubr
          endchar
        </CharString>
        <CharString name="AE">
          264 0 65 128 65 75 64 258 65 hstem
          760 65 rmoveto
          -232 hlineto
          -59 268 rlineto
          251 64 -265 hlineto
          -58 258 rlineto
          328 65 -440 hlineto
          -275 -720 rlineto
          84 hlineto
          69 193 rlineto
          253 hlineto
          41 -193 rlineto
          303 hlineto
          -437 634 rmoveto
          79 -376 rlineto
          -215 hlineto
          endchar
        </CharString>
        <CharString name="Aacute">
          -58 callsubr
          57 544 -66 callsubr
        </CharString>
        <CharString name="Acircumflex">
          1 callsubr
          77 -21 139 -84 callsubr
          109 568 -80 callsubr
        </CharString>
        <CharString name="Adieresis">
          1 callsubr
          106 -21 90 -84 callsubr
          55 527 -85 callsubr
        </CharString>
        <CharString name="Agrave">
          -58 callsubr
          7 647 -35 callsubr
        </CharString>
        <CharString name="Aring">
          -2 callsubr
          664 -20 hstem
          153 63 120 63 vstem
          543 hmoveto
          -210 705 rlineto
          39 17 27 36 50 vvcurveto
          15 callsubr
          -51 28 -35 39 -17 vhcurveto
          -210 -705 -88 callsubr
          109 485 -47 callsubr
          endchar
        </CharString>
        <CharString name="Atilde">
          1 callsubr
          79 68 -34 68 -93 callsubr
          hintmask 00001000
          49 555 -40 callsubr
        </CharString>
        <CharString name="B">
          13 0 65 286 61 249 59 44 callsubr
          226 85 -56 89 hintmask 11110100
          -43 callsubr
          187 vlineto
          123 119 57 147 120 -76 49 -73 11 hvcurveto
          hintmask 11111000
          68 20 48 65 74 vvcurveto
          110 -69 67 -148 vhcurveto
          2 -369 rmoveto
          hintmask 11110100
          105 54 -52 -95 -104 -76 -35 -79 hvcurveto
          -100 286 hlineto
          92 310 rmoveto
          hintmask 11111000
          81 53 -36 -85 -79 -43 -49 -91 hvcurveto
          -92 249 hlineto
          endchar
        </CharString>
        <CharString name="C">
          26 -15 68 615 67 hstem
          70 88 vstem
          458 150 rmoveto
          -29 callsubr
          -305 149 -70 106 106 63 54 80 37 hvcurveto
          endchar
        </CharString>
        <CharString name="CR">
          -256 endchar
        </CharString>
        <CharString name="Ccedilla">
          26 -241 59 850 67 hstem
          70 88 197 73 vstem
          428 41 callsubr
          2 37 90 9 56 51 34 73 rlinecurve
          -73 31 rlineto
          -29 callsubr
          -267 113 -87 100 -17 hvcurveto
          -14 -78 -62 callsubr
        </CharString>
        <CharString name="D">
          55 0 66 591 63 hstem
          90 85 280 86 vstem
          -43 callsubr
          130 vlineto
          45 callsubr
          -1 -63 47 callsubr
          591 hlineto
          endchar
        </CharString>
        <CharString name="E">
          -11 callsubr
          hstem
          90 85 vstem
          -77 callsubr
          endchar
        </CharString>
        <CharString name="Eacute">
          -11 callsubr
          62 39 callsubr
          -78 callsubr
          -204 472 -66 callsubr
        </CharString>
        <CharString name="Ecircumflex">
          -11 callsubr
          57 -21 139 -78 callsubr
          -144 493 -80 callsubr
        </CharString>
        <CharString name="Edieresis">
          -11 callsubr
          86 -21 90 -78 callsubr
          -199 452 -85 callsubr
        </CharString>
        <CharString name="Egrave">
          -11 callsubr
          59 39 callsubr
          -78 callsubr
          -248 572 -35 callsubr
        </CharString>
        <CharString name="Eth">
          65 0 66 285 65 241 63 hstem
          100 85 280 86 vstem
          30 351 rmoveto
          70 -351 130 hlineto
          45 callsubr
          -128 -304 -70 hlineto
          197 241 47 callsubr
          285 184 65 -184 241 hlineto
          endchar
        </CharString>
        <CharString name="Euro">
          -16 -15 64 193 60 87 60 199 62 hstem
          108 81 vstem
          439 449 rmoveto
          -245 hlineto
          137 16 52 62 87 hhcurveto
          49 33 -20 -41 34 hvcurveto
          52 47 rlineto
          45 -43 -47 31 -81 hhcurveto
          -97 -109 -50 -211 -26 hvcurveto
          -74 hlineto
          -15 -60 rlineto
          84 hlineto
          -1 -15 0 -15 -16 vvcurveto
          -14 0 -14 1 -13 vhcurveto
          -69 hlineto
          -15 -60 rlineto
          88 hlineto
          -214 25 121 -43 84 hhcurveto
          66 53 21 47 41 hvcurveto
          -51 47 rlineto
          -32 -27 -33 -19 -46 hhcurveto
          -73 -62 50 143 -17 hvcurveto
          194 hlineto
          15 60 rlineto
          -213 hlineto
          -1 13 0 13 15 vvcurveto
          16 0 15 1 15 vhcurveto
          234 hlineto
          endchar
        </CharString>
        <CharString name="F">
          -86 21 -21 312 68 272 68 hstem
          90 85 vstem
          395 380 rmoveto
          -220 272 260 68 -345 89 callsubr
          312 220 hlineto
          endchar
        </CharString>
        <CharString name="G">
          42 -14 66 -31 -21 329 68 274 65 hstemhm
          70 87 288 76 hintmask 10111100
          521 397 rmoveto
          -199 -68 123 -217 hlineto
          -41 -27 -42 -19 -54 hhcurveto
          -100 -65 73 236 224 69 86 105 61 34 -31 -50 22 hvcurveto
          72 33 rlineto
          71 -35 -59 42 -98 hhcurveto
          -134 -124 -89 -286 -283 108 -92 132 53 51 18 41 36 hvcurveto
          hintmask 01111100
          5 -45 rlineto
          66 hlineto
          endchar
        </CharString>
        <CharString name="H">
          64 21 -21 330 68 322 -20 hstem
          90 85 270 85 vstem
          445 -15 callsubr
          -322 -270 322 -85 89 callsubr
          330 270 -330 85 720 vlineto
          endchar
        </CharString>
        <CharString name="I">
          -291 62 callsubr
          85 vstem
          -44 callsubr
          endchar
        </CharString>
        <CharString name="IJ">
          117 -14 70 -35 -21 720 42 callsubr
          328 85 hintmask 01110000
          -44 callsubr
          hintmask 10101000
          328 -550 -55 callsubr
          endchar
        </CharString>
        <CharString name="Iacute">
          -8 callsubr
          -104 82 -66 callsubr
        </CharString>
        <CharString name="Icircumflex">
          -6 callsubr
          77 -21 139 -48 callsubr
          -43 106 -80 callsubr
        </CharString>
        <CharString name="Idieresis">
          -6 callsubr
          106 -21 90 -48 callsubr
          -97 65 -85 callsubr
        </CharString>
        <CharString name="Igrave">
          -8 callsubr
          -136 185 -35 callsubr
        </CharString>
        <CharString name="Itilde">
          -6 callsubr
          82 68 -34 68 -51 callsubr
          hintmask 00010000
          -104 96 -95 callsubr
        </CharString>
        <CharString name="J">
          -148 -14 70 664 -20 hstem
          238 85 vstem
          238 170 -55 callsubr
          endchar
        </CharString>
        <CharString name="Jcircumflex">
          -148 -14 70 664 -20 77 86 callsubr
          hstemhm
          238 85 hintmask 11001000
          238 170 -55 callsubr
          hintmask 00110000
          41 106 -80 callsubr
        </CharString>
        <CharString name="K">
          -13 62 callsubr
          85 vstem
          528 hmoveto
          -283 377 251 343 rlineto
          -95 hlineto
          -226 -314 rlineto
          314 -85 89 callsubr
          335 vlineto
          249 -335 rlineto
          endchar
        </CharString>
        <CharString name="L">
          -84 0 74 646 -20 hstem
          90 85 vstem
          48 callsubr
          endchar
        </CharString>
        <CharString name="Ldotaccent">
          -84 0 74 296 -21 97 -20 294 42 callsubr
          126 92 hintmask 10011000
          48 callsubr
          hintmask 01100100
          218 -371 38 callsubr
          endchar
        </CharString>
        <CharString name="Lslash">
          -74 0 74 646 -20 hstem
          100 85 vstem
          100 -15 callsubr
          -322 vlineto
          -80 -47 29 -57 51 29 rlineto
          -323 362 74 -277 300 vlineto
          165 100 -34 54 -131 -79 rlineto
          271 vlineto
          endchar
        </CharString>
        <CharString name="M">
          191 62 callsubr
          81 402 84 vstem
          416 95 rmoveto
          157 477 rlineto
          -572 84 720 -110 vlineto
          -166 -516 -180 516 rlineto
          -111 -720 81 572 hlineto
          170 -477 rlineto
          endchar
        </CharString>
        <CharString name="N">
          45 62 callsubr
          77 269 75 vstem
          -59 callsubr
          endchar
        </CharString>
        <CharString name="Nacute">
          45 -42 callsubr
          79 39 callsubr
          -20 -31 callsubr
          hintmask 00110000
          -249 82 -66 callsubr
        </CharString>
        <CharString name="Ntilde">
          45 -42 callsubr
          84 68 -34 68 -31 callsubr
          hintmask 00010000
          -269 98 -95 callsubr
        </CharString>
        <CharString name="O">
          8 callsubr
          hstem
          70 87 344 87 vstem
          -106 callsubr
          endchar
        </CharString>
        <CharString name="OE">
          338 -15 65 -50 50 -50 65 268 64 258 65 -50 50 -50 65 hstemhm
          70 87 344 83 hintmask 0011100110000000
          834 65 rmoveto
          -330 hlineto
          45 55 31 86 4 127 rrcurveto
          220 64 -220 hlineto
          -5 121 -30 83 -45 54 rrcurveto
          330 65 -420 hlineto
          hintmask 1001001110000000
          10 -27 -29 5 -29 hhcurveto
          -33 callsubr
          -279 127 -96 132 hvcurveto
          hintmask 0101100110000000
          29 29 5 10 27 hvcurveto
          420 hlineto
          hintmask 0011010110000000
          -677 360 rmoveto
          -72 callsubr
          vhcurveto
          hintmask 1001100110000000
          -75 callsubr
          endchar
        </CharString>
        <CharString name="Oacute">
          -71 callsubr
          128 442 -66 callsubr
        </CharString>
        <CharString name="Ocircumflex">
          8 callsubr
          42 -21 139 -98 callsubr
          172 466 -80 callsubr
        </CharString>
        <CharString name="Odieresis">
          8 callsubr
          71 -21 90 -98 callsubr
          116 425 -85 callsubr
        </CharString>
        <CharString name="Ograve">
          -71 callsubr
          59 545 -35 callsubr
        </CharString>
        <CharString name="Oslash">
          102 -87 -21 93 65 620 65 91 -20 12 callsubr
          -164 44 -100 62 -56 vhcurveto
          -47 -128 63 -20 41 112 rlineto
          -13 31 32 -6 33 hhcurveto
          132 127 96 279 162 -43 101 -62 55 hvcurveto
          48 128 -63 20 -42 -111 rlineto
          14 -31 -33 6 -33 hhcurveto
          -33 callsubr
          hvcurveto
          87 hmoveto
          202 58 108 114 28 25 -7 -13 21 vhcurveto
          -194 -536 rlineto
          -35 52 -17 82 112 vvcurveto
          344 hmoveto
          -201 -58 -109 -114 -29 -24 7 13 -22 vhcurveto
          195 534 rlineto
          34 -52 18 -82 -110 vvcurveto
          endchar
        </CharString>
        <CharString name="Otilde">
          8 callsubr
          47 68 -34 68 -105 callsubr
          hintmask 00010000
          109 456 -95 callsubr
        </CharString>
        <CharString name="P">
          -35 21 -21 260 65 330 65 49 callsubr
          260 46 callsubr
          2 -65 19 callsubr
        </CharString>
        <CharString name="Q">
          102 -147 -21 153 65 620 65 12 callsubr
          -273 121 -97 129 -5 vhcurveto
          179 -153 57 80 -147 88 rlineto
          98 35 81 104 221 vvcurveto
          -104 callsubr
          endchar
        </CharString>
        <CharString name="R">
          1 21 31 callsubr
          hstem
          90 85 227 87 vstem
          -90 callsubr
          endchar
        </CharString>
        <CharString name="Racute">
          1 21 31 callsubr
          59 39 callsubr
          -65 callsubr
          57 147 -66 callsubr
        </CharString>
        <CharString name="Rcaron">
          1 21 31 callsubr
          65 -21 139 -65 callsubr
          101 178 11 callsubr
        </CharString>
        <CharString name="Rcommaaccent">
          1 82 callsubr
          282 65 308 65 44 callsubr
          227 87 hintmask 00111110
          -90 callsubr
          hintmask 11000000
          183 -804 -21 callsubr
        </CharString>
        <CharString name="S">
          -8 -15 68 616 66 hstem
          73 83 247 87 vstem
          284 669 rmoveto
          71 37 -33 -55 23 hvcurveto
          74 26 rlineto
          79 -35 -58 49 -114 hhcurveto
          -132 -77 -80 -102 -91 50 -61 108 -44 hvcurveto
          124 -50 48 -23 -102 vvcurveto
          -97 -72 -32 -63 -96 -38 52 53 -19 vhcurveto
          -72 -27 rlineto
          -74 26 66 -72 132 hhcurveto
          130 93 92 110 141 -90 49 -103 40 hvcurveto
          -106 41 -35 31 70 vvcurveto
          75 54 35 74 vhcurveto
          endchar
        </CharString>
        <CharString name="T">
          -81 21 -21 646 74 hstem
          194 85 vstem
          455 -15 callsubr
          -435 -74 174 -646 85 646 176 hlineto
          endchar
        </CharString>
        <CharString name="Thorn">
          5 21 -21 135 65 330 65 125 -20 49 callsubr
          135 46 callsubr
          -77 125 hlineto
          79 -190 19 callsubr
        </CharString>
        <CharString name="U">
          28 callsubr
          hstem
          85 85 273 81 vstem
          -89 callsubr
          endchar
        </CharString>
        <CharString name="Uacute">
          -57 callsubr
          94 82 -66 callsubr
        </CharString>
        <CharString name="Ucircumflex">
          28 callsubr
          74 -21 139 -87 callsubr
          135 103 -80 callsubr
        </CharString>
        <CharString name="Udieresis">
          28 callsubr
          106 -21 90 -87 callsubr
          81 65 -85 callsubr
        </CharString>
        <CharString name="Ugrave">
          -57 callsubr
          23 185 -35 callsubr
        </CharString>
        <CharString name="V">
          -31 -3 callsubr
          437 -15 callsubr
          -172 -659 -167 659 rlineto
          -88 hlineto
          197 -720 rlineto
          114 hlineto
          194 720 rlineto
          endchar
        </CharString>
        <CharString name="W">
          203 -3 callsubr
          656 -15 callsubr
          -94 -629 -119 536 rlineto
          -109 hlineto
          -127 -538 -95 631 rlineto
          -87 hlineto
          120 -720 rlineto
          109 hlineto
          131 536 127 -536 rlineto
          102 hlineto
          120 720 rlineto
          endchar
        </CharString>
        <CharString name="X">
          -6 -3 callsubr
          508 -15 callsubr
          -88 hlineto
          -139 -268 -133 268 rlineto
          -95 hlineto
          179 -348 -197 -372 rlineto
          87 hlineto
          152 292 144 -292 rlineto
          97 hlineto
          -195 375 rlineto
          endchar
        </CharString>
        <CharString name="Y">
          -44 -3 callsubr
          216 84 vstem
          -20 callsubr
          endchar
        </CharString>
        <CharString name="Yacute">
          -44 -42 callsubr
          79 39 callsubr
          -20 hstemhm
          216 84 hintmask 11001000
          -20 callsubr
          hintmask 00110000
          -274 82 -66 callsubr
        </CharString>
        <CharString name="Z">
          -56 0 67 586 67 hstem
          450 648 rmoveto
          72 -387 -67 299 vlineto
          -322 -578 rlineto
          -75 400 67 -311 vlineto
          endchar
        </CharString>
        <CharString name="a">
          -52 callsubr
          hstemhm
          40 83 223 80 hintmask 01111100
          -101 callsubr
          hintmask 10111100
          -53 callsubr
          hintmask 01111100
          4 -60 rlineto
          hintmask 10111100
          -83 callsubr
          endchar
        </CharString>
        <CharString name="aacute">
          -81 callsubr
          -36 577 -56 callsubr
        </CharString>
        <CharString name="acircumflex">
          -52 callsubr
          63 -21 148 -20 -107 callsubr
          hintmask 00001100
          20 622 -73 callsubr
        </CharString>
        <CharString name="acute">
          -286 609 16 callsubr
          hstem
          20 631 -56 callsubr
        </CharString>
        <CharString name="acute.cap">
          73 callsubr
          45 802 -66 callsubr
        </CharString>
        <CharString name="adieresis">
          -52 callsubr
          101 -21 90 -20 -107 callsubr
          hintmask 00001100
          -35 581 -85 callsubr
        </CharString>
        <CharString name="ae">
          253 -10 64 210 63 166 62 hstem
          40 83 223 74 251 83 vstem
          684 -26 callsubr
          -79 -62 50 159 -1 hvcurveto
          334 hlineto
          204 -69 88 -131 -69 -55 -32 -67 -36 vhcurveto
          57 -19 -47 42 -83 hhcurveto
          -95 -63 -46 -72 -32 hvcurveto
          73 -28 rlineto
          54 20 36 30 57 hhcurveto
          75 30 -47 -64 hvcurveto
          -55 vlineto
          -220 -3 -86 -63 -117 vvcurveto
          -110 81 -44 89 91 53 52 58 27 vhcurveto
          -75 33 60 -35 83 hhcurveto
          94 61 46 55 35 hvcurveto
          -401 105 rmoveto
          -81 -44 -61 -80 -57 -42 28 68 81 63 32 160 1 vhcurveto
          -67 vlineto
          1 -1 rlineto
          207 297 rmoveto
          71 41 -42 -124 5 hvcurveto
          -248 hlineto
          115 12 47 51 72 hhcurveto
          endchar
        </CharString>
        <CharString name="agrave">
          -81 callsubr
          -58 701 -34 callsubr
        </CharString>
        <CharString name="ampersand">
          141 -10 65 -60 -21 675 61 hstemhm
          80 83 -53 78 207 74 hintmask 10101100
          528 357 rmoveto
          -4 -59 -13 -57 -22 -49 -169 172 rcurveline
          96 60 53 50 90 vvcurveto
          76 -65 70 -114 -121 -59 -81 -81 -70 45 -50 58 -58 vhcurveto
          hintmask 10110100
          -83 -54 -50 -49 -94 vvcurveto
          -104 88 -79 121 93 69 34 55 49 vhcurveto
          hintmask 01110100
          104 -105 54 47 -117 118 32 59 19 73 8 78 rlinecurve
          hintmask 10110100
          -299 -294 rmoveto
          -102 -36 66 59 64 27 35 68 46 hvcurveto
          192 -196 rlineto
          -45 -36 -50 -29 -63 hhcurveto
          hintmask 10101100
          -113 498 rmoveto
          61 36 35 68 56 47 -36 -52 -58 -25 -35 -94 -59 vhcurveto
          -66 69 -22 31 44 vvcurveto
          endchar
        </CharString>
        <CharString name="aring">
          -52 callsubr
          48 -21 228 -20 hstemhm
          40 83 2 63 120 63 -25 80 hintmask 0111001001000000
          -101 callsubr
          hintmask 1011001001000000
          -53 callsubr
          hintmask 0111001001000000
          4 -60 rlineto
          hintmask 1011001001000000
          -83 callsubr
          hintmask 0000110110000000
          21 577 -69 callsubr
        </CharString>
        <CharString name="asciicircum">
          -56 421 -21 320 -20 hstem
          40 400 rmoveto
          84 hlineto
          128 258 124 -258 rlineto
          84 hlineto
          -163 320 rlineto
          -90 hlineto
          endchar
        </CharString>
        <CharString name="asciitilde">
          4 259 75 -27 75 hstemhm
          hintmask 10000000
          375 259 rmoveto
          47 50 22 45 47 hvcurveto
          -50 53 rlineto
          -26 -29 -24 -19 -41 hhcurveto
          hintmask 01000000
          -63 -35 48 -93 hhcurveto
          -47 -50 -22 -45 -47 hvcurveto
          50 -53 rlineto
          26 29 24 19 41 hhcurveto
          hintmask 10000000
          63 35 -48 93 hhcurveto
          endchar
        </CharString>
        <CharString name="asterisk">
          -86 404 -21 352 -20 hstem
          275 735 rmoveto
          -80 hlineto
          16 -152 -138 60 -24 -72 146 -31 -101 -114 64 -43 77 130 77 -129 65 42 -102 114 145 32 -23 72 -139 -60 rlineto
          endchar
        </CharString>
        <CharString name="at">
          364 -91 61 130 51 357 55 115 57 hstem
          80 79 124 78 400 79 vstem
          654 98 rmoveto
          121 65 142 131 245 -144 119 -210 -175 -231 -112 -311 -256 162 -147 221 74 44 12 11 41 hvcurveto
          -16 57 rlineto
          -11 -45 -34 -8 -66 hhcurveto
          -162 -140 115 226 256 182 111 145 180 95 -114 -194 -144 -53 -75 -57 -37 -20 22 60 11 1 16 2 14 hvcurveto
          30 240 rlineto
          34 -39 -40 15 -58 hhcurveto
          -155 -52 -157 -124 -133 67 -49 72 70 43 39 45 18 hvcurveto
          -43 5 30 -43 66 hhcurveto
          -213 59 rmoveto
          -41 -39 21 97 93 23 140 112 28 14 -6 -12 13 hvcurveto
          -26 -219 rlineto
          -86 -10 -34 -28 -40 hhcurveto
          endchar
        </CharString>
        <CharString name="atilde">
          -52 callsubr
          69 68 -34 68 -107 callsubr
          hintmask 00000100
          -44 604 rmoveto
          hintmask 00001000
          -91 callsubr
          hintmask 00000100
          -94 callsubr
        </CharString>
        <CharString name="b">
          -28 -10 60 -29 -21 489 66 180 56 callsubr
          221 84 hintmask 01111100
          150 hmoveto
          3 43 rlineto
          hintmask 10111100
          -33 27 41 -20 50 5 callsubr
          -57 -46 -28 -45 -34 hvcurveto
          253 -80 vlineto
          hintmask 01111100
          -735 vlineto
          198 489 rmoveto
          64 39 -44 -159 hvcurveto
          hintmask 10111100
          24 callsubr
          vhcurveto
          20 callsubr
        </CharString>
        <CharString name="backslash">
          83 callsubr
          57 -15 callsubr
          -69 -15 220 -805 69 15 rlineto
          endchar
        </CharString>
        <CharString name="bar">
          30 callsubr
          -920 82 920 vlineto
          endchar
        </CharString>
        <CharString name="braceleft">
          78 callsubr
          113 75 vstem
          34 283 rmoveto
          48 31 -24 -64 hvcurveto
          -198 vlineto
          -113 43 -54 131 vhcurveto
          60 vlineto
          -79 -20 22 70 hvcurveto
          191 vlineto
          87 -28 42 -51 19 vhcurveto
          51 18 28 42 87 vvcurveto
          190 vlineto
          70 20 22 79 vhcurveto
          60 vlineto
          -131 -43 -54 -113 hvcurveto
          -197 vlineto
          -64 -31 -24 -48 vhcurveto
          endchar
        </CharString>
        <CharString name="braceright">
          78 callsubr
          152 75 vstem
          306 358 rmoveto
          -48 -31 24 64 hvcurveto
          197 vlineto
          113 -43 54 -131 vhcurveto
          -60 vlineto
          79 20 -22 -70 hvcurveto
          -190 vlineto
          -87 28 -42 51 -18 vhcurveto
          -51 -19 -28 -42 -87 vvcurveto
          -191 vlineto
          -70 -20 -22 -79 vhcurveto
          -60 vlineto
          131 43 54 113 hvcurveto
          198 vlineto
          64 31 24 48 vhcurveto
          endchar
        </CharString>
        <CharString name="bracketleft">
          75 callsubr
          75 78 vstem
          278 -102 rmoveto
          -125 844 125 68 -203 -980 203 hlineto
          endchar
        </CharString>
        <CharString name="bracketright">
          75 callsubr
          187 78 vstem
          62 -170 rmoveto
          203 980 -203 -68 125 -844 -125 hlineto
          endchar
        </CharString>
        <CharString name="brokenbar">
          30 callsubr
          -380 82 380 vlineto
          -82 -540 rmoveto
          -380 82 380 vlineto
          endchar
        </CharString>
        <CharString name="bullet">
          -241 273 -21 145 -20 hstem
          235 252 rmoveto
          145 -155 -145 vlineto
          endchar
        </CharString>
        <CharString name="c">
          -47 -13 66 438 64 hstem
          63 84 18 callsubr
          rlineto
          63 -48 -53 24 -76 hhcurveto
          -124 -98 -89 -197 -203 100 -79 119 89 63 47 61 39 hvcurveto
          -65 42 rlineto
          13 callsubr
          hvcurveto
          endchar
        </CharString>
        <CharString name="caron">
          -180 620 64 callsubr
          hstem
          188 4 callsubr
        </CharString>
        <CharString name="caron.cap">
          -180 785 86 callsubr
          hstem
          188 833 11 callsubr
        </CharString>
        <CharString name="ccedilla">
          -47 -241 59 673 64 hstem
          63 84 161 73 vstem
          381 41 callsubr
          3 40 77 7 55 43 36 56 rlinecurve
          -65 42 rlineto
          13 callsubr
          25 callsubr
          hvcurveto
          62 45 rlineto
          63 -48 -53 24 -76 hhcurveto
          -124 -98 -89 -197 -177 75 -82 98 -18 hvcurveto
          -14 -81 -62 callsubr
        </CharString>
        <CharString name="cedilla">
          -277 -241 59 202 -20 hstem
          176 73 vstem
          249 41 callsubr
          5 71 rlineto
          -65 hlineto
          -20 -109 -62 callsubr
        </CharString>
        <CharString name="cent">
          -16 -114 -21 825 -20 hstem
          63 84 97 72 18 callsubr
          -41 54 -45 25 -60 6 rlinecurve
          137 -72 -139 vlineto
          -104 -18 -77 -90 -174 vvcurveto
          -181 79 -82 102 -16 vhcurveto
          -125 72 125 vlineto
          71 10 52 42 34 53 -65 42 rcurveline
          13 callsubr
          hvcurveto
          endchar
        </CharString>
        <CharString name="circumflex">
          -180 618 64 callsubr
          hstem
          188 676 -73 callsubr
        </CharString>
        <CharString name="circumflex.cap">
          -180 777 86 callsubr
          hstem
          188 826 -80 callsubr
        </CharString>
        <CharString name="colon">
          -326 29 callsubr
          165 hmoveto
          100 -100 -100 vlineto
          100 440 36 callsubr
          endchar
        </CharString>
        <CharString name="comma">
          -326 -131 -21 252 88 callsubr
          1 rmoveto
          99 -100 -100 vlineto
          -26 -152 rlineto
          56 hlineto
          endchar
        </CharString>
        <CharString name="commaaccent">
          -390 53 callsubr
          hstem
          136 -149 -21 callsubr
        </CharString>
        <CharString name="copyright">
          287 -15 54 116 52 309 51 114 54 hstem
          59 68 152 67 369 68 vstem
          492 261 rmoveto
          -30 -9 -16 -24 -41 hhcurveto
          -39 -41 35 119 119 40 36 39 40 12 -25 -31 10 hvcurveto
          59 21 rlineto
          48 -20 -36 38 -64 hhcurveto
          -65 -82 -41 -165 -168 82 -38 59 71 41 36 48 19 hvcurveto
          232 121 rmoveto
          263 -188 112 -174 -174 -188 -112 -263 -263 188 -112 174 174 188 112 263 vhcurveto
          -68 hmoveto
          -216 -144 -105 -150 -150 -144 105 216 216 144 105 150 150 144 -105 -216 vhcurveto
          endchar
        </CharString>
        <CharString name="currency">
          44 91 61 -52 -21 453 62 3 -20 hstemhm
          64 70 329 70 hintmask 01101100
          41 127 rmoveto
          48 -48 62 62 rlineto
          hintmask 10101100
          -35 43 55 -15 50 hhcurveto
          50 55 16 35 44 hvcurveto
          hintmask 01011100
          63 -63 48 48 -66 65 rlineto
          25 38 15 48 62 vvcurveto
          59 -15 48 -23 38 vhcurveto
          64 64 -48 48 -60 -60 rlineto
          hintmask 10101100
          39 -44 -56 18 -52 hhcurveto
          -52 -56 -18 -37 -44 hvcurveto
          hintmask 10011100
          -58 58 -48 -48 61 -62 rlineto
          -24 -38 -14 -49 -60 vvcurveto
          -63 16 -49 25 -37 vhcurveto
          29 149 rmoveto
          hintmask 10101100
          119 68 73 97 97 67 -73 -119 -119 -66 -69 -97 -97 -69 69 119 vhcurveto
          endchar
        </CharString>
        <CharString name="d">
          -23 -10 66 -35 -21 495 60 180 -20 hstemhm
          63 84 226 80 hintmask 10111100
          77 callsubr
          59 50 29 49 34 vhcurveto
          hintmask 01111100
          4 -68 rlineto
          70 735 -80 -221 hlineto
          28 -27 -37 13 -47 hhcurveto
          -124 -75 -98 -188 hvcurveto
          hintmask 10111100
          61 callsubr
          54 58 77 31 34 -13 -32 30 hvcurveto
          -324 80 callsubr
        </CharString>
        <CharString name="degree">
          -201 424 52 182 52 hstem
          40 68 140 67 vstem
          40 566 rmoveto
          -94 65 -48 73 73 64 48 94 94 -64 50 -73 -73 -65 -50 -94 vhcurveto
          68 hmoveto
          55 26 37 44 44 26 -37 -55 -55 -26 -35 -44 -44 -26 35 55 vhcurveto
          endchar
        </CharString>
        <CharString name="dieresis">
          -196 656 72 callsubr
          hstem
          125 635 -85 callsubr
        </CharString>
        <CharString name="dieresis.cap">
          -196 806 72 callsubr
          hstem
          125 785 -85 callsubr
        </CharString>
        <CharString name="divide">
          -16 72 -21 237 70 231 -20 hstem
          320 51 36 callsubr
          100 438 36 callsubr
          255 -201 54 callsubr
          endchar
        </CharString>
        <CharString name="dollar">
          -16 -114 -21 955 -20 hstem
          78 81 85 72 91 83 vstem
          280 644 rmoveto
          75 40 -47 -52 16 hvcurveto
          74 14 -22 68 -53 66 -94 14 rlinecurve
          113 -72 -112 vlineto
          -105 -13 -61 -69 -98 vvcurveto
          -75 43 -65 103 -41 vhcurveto
          125 -50 58 -21 -101 vvcurveto
          -88 -74 -34 -53 -94 -42 55 52 -15 vhcurveto
          -78 -14 20 -66 62 -80 111 -13 rlinecurve
          -122 72 123 vlineto
          107 16 67 85 93 vvcurveto
          134 -92 51 -97 35 vhcurveto
          -118 43 -24 37 55 vvcurveto
          75 57 32 64 vhcurveto
          endchar
        </CharString>
        <CharString name="dotaccentcmb">
          -555 659 -21 97 -20 hstem
          -92 92 vstem
          638 vmoveto
          97 -92 -97 vlineto
          endchar
        </CharString>
        <CharString name="dotaccentcmb.cap">
          -555 809 -21 97 -20 hstem
          -92 92 vstem
          788 vmoveto
          97 -92 -97 vlineto
          endchar
        </CharString>
        <CharString name="dotlessi">
          -17 callsubr
          hstem
          80 80 vstem
          57 callsubr
          -10 callsubr
          endchar
        </CharString>
        <CharString name="dotlessj">
          50 callsubr
          hstem
          80 80 vstem
          -16 callsubr
          endchar
        </CharString>
        <CharString name="e">
          -22 -18 callsubr
          hstem
          63 82 251 83 vstem
          -103 callsubr
          endchar
        </CharString>
        <CharString name="eacute">
          -74 callsubr
          -70 138 -56 callsubr
        </CharString>
        <CharString name="ecircumflex">
          -22 -18 callsubr
          63 -21 148 -99 callsubr
          -2 183 -73 callsubr
        </CharString>
        <CharString name="edieresis">
          -22 -18 callsubr
          101 -21 90 -99 callsubr
          -57 142 -85 callsubr
        </CharString>
        <CharString name="egrave">
          -74 callsubr
          -82 262 -34 callsubr
        </CharString>
        <CharString name="eight">
          -16 -10 62 600 58 hstemhm
          54 86 -57 79 214 81 -57 86 hintmask 11100100
          54 177 rmoveto
          -104 84 -83 132 132 84 82 112 103 -69 54 -71 35 vhcurveto
          hintmask 11011000
          53 26 58 54 81 vvcurveto
          125 -92 48 -95 -95 -92 -56 -124 -84 57 -46 47 -26 vhcurveto
          hintmask 11100100
          -54 -24 -79 -60 -113 vvcurveto
          346 7 rmoveto
          -82 -53 -50 -77 -77 -53 56 76 92 47 43 50 30 vhcurveto
          89 -40 74 -31 -94 vvcurveto
          hintmask 11011000
          -238 351 rmoveto
          85 51 32 57 57 49 -30 -87 -66 -38 -40 -45 -28 vhcurveto
          -65 28 -66 32 74 vvcurveto
          endchar
        </CharString>
        <CharString name="emdash">
          44 287 72 hstem
          600 287 rmoveto
          72 -600 -72 vlineto
          endchar
        </CharString>
        <CharString name="endash">
          -156 287 72 hstem
          400 287 rmoveto
          72 -400 -72 vlineto
          endchar
        </CharString>
        <CharString name="equal">
          -16 191 70 130 70 hstem
          475 391 54 callsubr
          410 -200 54 callsubr
          endchar
        </CharString>
        <CharString name="eth">
          -72 -10 61 356 63 285 -20 hstem
          40 81 233 80 vstem
          434 345 rmoveto
          154 -46 97 -71 63 vhcurveto
          49 51 -52 30 -44 -46 -48 30 -56 18 -57 13 rlinecurve
          -23 -60 52 -14 45 -16 38 -23 rlinecurve
          -73 -76 52 -30 68 71 48 -45 30 -65 6 -98 rlinecurve
          41 -28 -44 30 -67 hhcurveto
          -123 -50 -116 -128 -160 86 -76 105 146 57 127 228 hvcurveto
          -207 62 rmoveto
          54 43 -29 -33 30 hvcurveto
          -209 -2 -37 -85 -81 hhcurveto
          -57 -56 45 129 120 40 62 66 hvcurveto
          endchar
        </CharString>
        <CharString name="exclam">
          -286 -42 callsubr
          hstemhm
          93 80 -80 92 hintmask 11100000
          168 240 rmoveto
          10 480 rlineto
          -90 hlineto
          10 -480 rlineto
          hintmask 11010000
          87 -240 36 callsubr
          endchar
        </CharString>
        <CharString name="exclamdown">
          -286 -159 -24 callsubr
          hstemhm
          85 92 -80 80 hintmask 11010000
          102 300 rmoveto
          -10 -480 rlineto
          90 hlineto
          -10 480 rlineto
          hintmask 11100000
          -87 240 rmoveto
          -100 100 100 vlineto
          endchar
        </CharString>
        <CharString name="f">
          -244 21 -21 475 65 137 66 hstem
          95 80 vstem
          346 710 rmoveto
          19 -28 -38 14 -39 hhcurveto
          -100 -46 -59 -81 hvcurveto
          -63 -75 vlineto
          -10 -65 rlineto
          85 -475 80 475 125 65 -125 61 hlineto
          47 17 29 49 24 22 -7 -14 21 vhcurveto
          endchar
        </CharString>
        <CharString name="five">
          -16 -10 64 337 59 186 64 hstem
          107 76 204 83 vstem
          74 98 rmoveto
          -63 30 59 -45 93 hhcurveto
          128 86 98 138 175 -84 49 -96 -44 -39 -16 -21 -30 hvcurveto
          12 223 rlineto
          242 64 -314 hlineto
          -19 -350 66 -7 rlineto
          37 36 37 11 32 hhcurveto
          66 52 -41 -120 -143 -78 -33 -52 -58 -38 34 40 -16 hvcurveto
          endchar
        </CharString>
        <CharString name="foundryicon">
          308 21 -21 576 -20 hstem
          720 hmoveto
          288 -288 288 -288 -576 vlineto
          576 432 rmoveto
          144 -144 -144 vlineto
          endchar
        </CharString>
        <CharString name="four">
          -16 21 -21 137 65 506 -20 hstem
          312 77 vstem
          331 444 rmoveto
          -19 -106 rlineto
          -136 -163 vlineto
          145 492 -74 14 -149 -499 rlineto
          -72 241 -137 77 137 96 65 -96 242 vlineto
          endchar
        </CharString>
        <CharString name="g">
          -47 -197 54 195 70 69 58 248 58 37 -20 hstemhm
          35 80 -64 80 233 80 -55 85 hintmask 1111101100000000
          458 592 rmoveto
          -203 -37 rlineto
          -101 -1 -103 -59 -124 vvcurveto
          -68 32 -47 43 -29 vhcurveto
          -30 -15 -22 -25 -38 vvcurveto
          -31 12 -26 35 -17 vhcurveto
          hintmask 1111110010000000
          -51 -26 -35 -45 -59 vvcurveto
          -85 75 -57 135 152 77 83 82 112 -87 34 -135 8 vhcurveto
          -100 6 -11 17 25 vvcurveto
          12 8 13 14 12 vhcurveto
          -11 28 30 -5 28 hhcurveto
          hintmask 1111101100000000
          92 103 55 125 75 -40 46 -54 23 hvcurveto
          118 hlineto
          -337 -144 rmoveto
          76 52 50 71 70 40 -52 -74 -74 -44 -48 -71 -71 -47 48 74 vhcurveto
          89 -319 rmoveto
          hintmask 1111110010000000
          143 -11 26 -27 -51 vvcurveto
          -41 -30 -65 -115 -98 -31 51 50 46 20 30 31 25 vhcurveto
          16 -3 17 -3 21 -1 rrcurveto
          endchar
        </CharString>
        <CharString name="germandbls">
          18 -10 65 -34 -21 684 61 21 callsubr
          103 76 34 69 9 78 hintmask 01111110
          529 160 rmoveto
          85 -47 44 -55 30 vhcurveto
          -64 34 -24 16 40 65 103 18 100 vvcurveto
          93 -64 60 -106 -113 -79 -78 -134 vhcurveto
          -533 80 552 vlineto
          78 40 54 72 64 37 -35 -52 vhcurveto
          -82 -110 -4 -112 vvcurveto
          -70 48 -34 54 -30 vhcurveto
          47 -26 39 -26 -58 vvcurveto
          hintmask 10111110
          -65 -43 -35 -47 -40 -31 21 27 -21 vhcurveto
          -54 -50 rlineto
          -34 29 41 -29 76 hhcurveto
          89 79 55 115 hvcurveto
          endchar
        </CharString>
        <CharString name="grave">
          -286 609 16 callsubr
          hstem
          105 755 -34 callsubr
        </CharString>
        <CharString name="grave.cap">
          73 callsubr
          74 905 -35 callsubr
        </CharString>
        <CharString name="greater">
          85 callsubr
          475 281 rmoveto
          90 vlineto
          -392 162 -23 -69 352 -139 -352 -157 23 -69 rlineto
          endchar
        </CharString>
        <CharString name="guillemotleft">
          -66 -4 callsubr
          286 -225 -12 callsubr
          endchar
        </CharString>
        <CharString name="guillemotright">
          -66 32 callsubr
          430 326 -13 callsubr
          -72 225 -13 callsubr
          endchar
        </CharString>
        <CharString name="guilsinglleft">
          -245 -4 callsubr
          endchar
        </CharString>
        <CharString name="guilsinglright">
          -245 32 callsubr
          251 326 -13 callsubr
          endchar
        </CharString>
        <CharString name="h">
          -8 37 callsubr
          180 87 callsubr
          228 80 vstem
          -54 callsubr
          367 vlineto
          139 -64 49 -93 -51 -58 -24 -58 -42 vhcurveto
          262 -80 -735 vlineto
          endchar
        </CharString>
        <CharString name="hbar">
          -3 37 callsubr
          58 62 60 -20 hstem
          85 80 228 80 vstem
          30 613 rmoveto
          55 -613 80 400 hlineto
          -46 callsubr
          367 vlineto
          139 -64 49 -93 -51 -58 -24 -58 -42 vhcurveto
          140 200 62 -200 60 -80 -60 -55 vlineto
          endchar
        </CharString>
        <CharString name="hyphen">
          22 callsubr
        </CharString>
        <CharString name="i">
          -17 callsubr
          215 87 callsubr
          vstem
          17 callsubr
          endchar
        </CharString>
        <CharString name="iacute">
          -7 callsubr
          -35 631 -56 callsubr
        </CharString>
        <CharString name="icircumflex">
          -17 callsubr
          98 70 callsubr
          80 80 hintmask 00110000
          120 676 -76 callsubr
          hintmask 11001000
          160 -597 rmoveto
          -10 callsubr
          endchar
        </CharString>
        <CharString name="idieresis">
          -17 callsubr
          136 -21 90 -20 -28 callsubr
          hintmask 00110000
          -15 635 -85 callsubr
        </CharString>
        <CharString name="igrave">
          -7 callsubr
          -30 755 -34 callsubr
        </CharString>
        <CharString name="ij">
          -76 -188 67 142 -36 callsubr
          215 56 callsubr
          160 80 hintmask 01111000
          17 callsubr
          hintmask 10110100
          92 -32 callsubr
        </CharString>
        <CharString name="itilde">
          -17 callsubr
          102 68 -34 68 -28 callsubr
          hintmask 00010000
          -22 656 -95 callsubr
        </CharString>
        <CharString name="j">
          50 callsubr
          215 87 callsubr
          vstem
          -68 -32 callsubr
        </CharString>
        <CharString name="jcircumflex">
          50 callsubr
          98 70 callsubr
          80 80 hintmask 11001000
          -16 callsubr
          hintmask 00110000
          164 784 -73 callsubr
        </CharString>
        <CharString name="k">
          -51 -27 callsubr
          215 87 callsubr
          vstem
          -23 callsubr
          endchar
        </CharString>
        <CharString name="kcommaaccent">
          -51 82 callsubr
          540 -20 215 56 callsubr
          hintmask 00111100
          -23 callsubr
          hintmask 11000000
          241 -149 -21 callsubr
        </CharString>
        <CharString name="kgreenlandic">
          -51 29 callsubr
          80 80 vstem
          57 callsubr
          285 vlineto
          235 -285 rlineto
          100 hlineto
          -248 305 215 26 callsubr
          225 -80 -540 vlineto
          endchar
        </CharString>
        <CharString name="l">
          -307 52 callsubr
          89 80 vstem
          89 hmoveto
          59 callsubr
        </CharString>
        <CharString name="ldot">
          -223 52 callsubr
          89 80 52 92 vstem
          313 349 38 callsubr
          -132 -349 rmoveto
          59 callsubr
        </CharString>
        <CharString name="less">
          85 callsubr
          457 99 rmoveto
          23 69 -352 157 352 139 -23 69 -392 -162 rlineto
          -90 vlineto
          endchar
        </CharString>
        <CharString name="logicalnot">
          -16 162 39 callsubr
          70 hstem
          402 73 vstem
          475 141 rmoveto
          217 -410 -70 337 -147 vlineto
          endchar
        </CharString>
        <CharString name="lslash">
          -287 52 callsubr
          99 80 vstem
          99 hmoveto
          80 369 hlineto
          90 60 -36 57 -54 -36 rlineto
          285 -144 vlineto
          -10 -65 rlineto
          74 -273 hlineto
          -84 -55 36 -57 48 31 rlineto
          endchar
        </CharString>
        <CharString name="m">
          269 33 callsubr
          hstemhm
          80 80 212 80 212 80 cntrmask 00011100
          hintmask 11011100
          57 callsubr
          66 callsubr
          -39 -77 hvcurveto
          -374 80 66 callsubr
          -26 -100 hvcurveto
          -364 80 379 vlineto
          136 -65 40 -93 -53 -60 -25 -60 -39 vhcurveto
          61 -26 -49 24 -65 hhcurveto
          -51 -53 -22 -56 -37 hvcurveto
          hintmask 10111100
          -5 63 69 callsubr
          endchar
        </CharString>
        <CharString name="macron">
          -226 646 69 hstem
          300 646 rmoveto
          69 -270 -69 vlineto
          endchar
        </CharString>
        <CharString name="mu">
          -20 71 callsubr
          65 -34 -21 540 7 callsubr
          hintmask 11011100
          160 -180 rmoveto
          210 vlineto
          -27 22 39 -13 37 hhcurveto
          53 43 26 46 28 hvcurveto
          hintmask 10111100
          4 -62 rlineto
          70 540 -80 -402 hlineto
          hintmask 11011100
          -54 -31 -35 -29 -49 hhcurveto
          -59 -42 25 100 hvcurveto
          360 -80 -720 vlineto
          endchar
        </CharString>
        <CharString name="multiply">
          -16 152 -21 380 -20 hstem
          406 131 rmoveto
          54 54 -136 136 136 136 -54 54 -136 -136 -136 136 -54 -54 136 -136 -136 -136 54 -54 136 136 rlineto
          endchar
        </CharString>
        <CharString name="n">
          -8 33 callsubr
          hstemhm
          80 80 228 80 hintmask 11011000
          -64 callsubr
          hintmask 10111000
          -6 71 69 callsubr
          endchar
        </CharString>
        <CharString name="nacute">
          -8 33 callsubr
          89 -21 167 -20 -50 callsubr
          hintmask 00011000
          138 631 -56 callsubr
        </CharString>
        <CharString name="nbspace">
          -256 endchar
        </CharString>
        <CharString name="nine">
          -16 -2 -21 288 63 321 61 hstem
          81 81 236 80 vstem
          133 -23 rmoveto
          183 15 162 134 298 vvcurveto
          187 -60 99 -138 -106 -93 -75 -156 -126 59 -88 112 57 49 27 40 35 vhcurveto
          -24 -186 -104 -91 -142 -13 rrcurveto
          146 286 rmoveto
          -66 -41 45 112 122 60 42 57 83 36 -72 -160 hvcurveto
          -21 vlineto
          -35 -32 -44 -33 -53 hhcurveto
          endchar
        </CharString>
        <CharString name="ntilde">
          -8 33 callsubr
          99 68 -34 68 -50 callsubr
          hintmask 00001000
          136 653 -40 callsubr
        </CharString>
        <CharString name="numbersign">
          19 21 -21 197 61 189 61 192 -20 hstem
          502 258 rmoveto
          -83 hlineto
          17 189 rlineto
          82 hlineto
          6 61 rlineto
          -83 65 callsubr
          -142 65 callsubr
          -80 hlineto
          -6 -61 rlineto
          81 hlineto
          -17 -189 rlineto
          -80 hlineto
          -4 -61 rlineto
          79 hlineto
          -17 -197 rlineto
          71 hlineto
          17 197 rlineto
          142 hlineto
          -17 -197 rlineto
          71 hlineto
          17 197 rlineto
          84 hlineto
          -275 250 rmoveto
          142 hlineto
          -17 -189 rlineto
          -142 hlineto
          endchar
        </CharString>
        <CharString name="o">
          9 callsubr
          hstem
          34 callsubr
          vstem
          -102 callsubr
          endchar
        </CharString>
        <CharString name="oacute">
          -68 callsubr
          69 361 -56 callsubr
        </CharString>
        <CharString name="ocircumflex">
          9 callsubr
          63 -21 148 -96 callsubr
          136 406 -73 callsubr
        </CharString>
        <CharString name="odieresis">
          9 callsubr
          101 -21 90 -96 callsubr
          81 365 -85 callsubr
        </CharString>
        <CharString name="oe">
          328 -18 callsubr
          hstem
          55 callsubr
          76 251 83 vstem
          -45 callsubr
          67 70 26 85 38 vhcurveto
          -75 34 62 -36 81 hhcurveto
          94 58 46 55 35 hvcurveto
          -63 39 rlineto
          -32 -18 -38 -44 -63 hhcurveto
          -77 -65 -61 callsubr
          -78 -60 -36 -79 -33 vhcurveto
          87 -38 -69 28 -68 hhcurveto
          -9 callsubr
          hvcurveto
          -82 callsubr
          482 223 -70 callsubr
          endchar
        </CharString>
        <CharString name="ograve">
          -68 callsubr
          57 485 -34 callsubr
        </CharString>
        <CharString name="one">
          -16 0 69 631 -20 hstem
          268 79 vstem
          456 hmoveto
          69 -109 631 -85 vlineto
          -168 -103 37 -57 137 84 rlineto
          -555 -133 -69 vlineto
          endchar
        </CharString>
        <CharString name="onehalf">
          284 -78 -21 99 60 260 70 -56 56 420 -20 hstemhm
          162 71 461 76 hintmask 11011110
          690 781 27 callsubr
          396 433 -49 callsubr
          hintmask 11101110
          -332 -14 -30 callsubr
        </CharString>
        <CharString name="onequarter">
          79 callsubr
          191 61 429 -20 hstem
          169 71 401 66 vstem
          -37 callsubr
          71 419 -30 callsubr
        </CharString>
        <CharString name="onesuperior">
          -216 420 61 319 -20 hstem
          144 71 vstem
          289 420 -30 callsubr
        </CharString>
        <CharString name="ordfeminine">
          -81 0 70 242 54 153 50 113 53 hstem
          76 79 162 77 vstem
          394 318 rmoveto
          300 vlineto
          80 -65 37 -81 -80 -45 -34 -48 -26 vhcurveto
          70 -27 rlineto
          36 12 32 20 32 hhcurveto
          50 24 -28 -42 hvcurveto
          -43 vlineto
          -158 -83 -38 -105 -67 55 -47 71 57 39 23 33 26 hvcurveto
          7 -50 rlineto
          69 -318 rmoveto
          70 -305 -70 vlineto
          133 366 rmoveto
          -35 -38 13 53 57 38 30 124 hvcurveto
          -112 vlineto
          -23 -20 -33 -18 -36 hhcurveto
          endchar
        </CharString>
        <CharString name="ordmasculine">
          -81 0 70 241 56 311 57 hstem
          70 80 176 79 vstem
          70 521 rmoveto
          -158 79 -52 89 89 78 52 158 158 -79 56 -88 -88 -80 -56 -158 vhcurveto
          80 hmoveto
          108 36 49 52 52 36 -49 -108 -108 -36 -46 -51 -51 -38 46 108 vhcurveto
          240 -521 rmoveto
          70 -303 -70 vlineto
          endchar
        </CharString>
        <CharString name="oslash">
          9 -81 -21 92 62 441 62 78 -20 hstem
          34 callsubr
          vstem
          63 270 rmoveto
          -117 33 -72 46 -41 vhcurveto
          -54 -116 59 -26 50 108 rlineto
          -11 28 29 -5 29 hhcurveto
          105 114 57 223 115 -31 72 -44 43 hvcurveto
          50 108 -60 25 -45 -96 rlineto
          13 -29 -31 5 -29 hhcurveto
          -9 callsubr
          hvcurveto
          84 hmoveto
          152 57 71 79 22 21 -6 -11 18 vhcurveto
          -167 -360 rlineto
          -20 35 -10 51 68 vvcurveto
          272 hmoveto
          -154 -52 -64 -83 -22 -20 4 10 -17 vhcurveto
          165 356 rlineto
          18 -36 11 -50 -66 vvcurveto
          endchar
        </CharString>
        <CharString name="otilde">
          9 callsubr
          67 68 -34 68 -100 callsubr
          hintmask 00010000
          74 386 -95 callsubr
        </CharString>
        <CharString name="p">
          -28 71 callsubr
          60 439 66 -15 56 callsubr
          221 84 hintmask 11101100
          -1 callsubr
          -59 -51 -30 -49 -34 hvcurveto
          hintmask 11011100
          -5 64 rlineto
          -68 -720 hlineto
          hintmask 11101100
          -19 callsubr
        </CharString>
        <CharString name="paragraph">
          -6 -149 -21 870 -20 hstem
          211 76 87 76 vstem
          287 -170 rmoveto
          870 -76 vlineto
          -50 -98 -17 -146 -154 98 -8 50 hvcurveto
          -545 vlineto
          163 870 rmoveto
          -870 76 870 vlineto
          endchar
        </CharString>
        <CharString name="parenleft">
          74 callsubr
          75 76 vstem
          75 330 rmoveto
          -244 72 -127 74 -114 vhcurveto
          54 25 rlineto
          -67 123 -57 117 220 vvcurveto
          220 57 117 67 123 vhcurveto
          -54 25 rlineto
          -74 -114 -72 -127 -244 vvcurveto
          endchar
        </CharString>
        <CharString name="parenright">
          74 callsubr
          189 76 vstem
          265 330 rmoveto
          244 -72 127 -74 114 vhcurveto
          -54 -25 rlineto
          67 -123 57 -117 -220 vvcurveto
          -220 -57 -117 -67 -123 vhcurveto
          54 -25 rlineto
          74 114 72 127 244 vvcurveto
          endchar
        </CharString>
        <CharString name="percent">
          184 -8 55 -49 -21 294 57 46 55 224 57 12 -20 hstemhm
          60 70 132 69 78 70 132 69 hintmask 0111011111000000
          542 700 rmoveto
          -63 22 -286 -722 62 -23 rlineto
          -195 564 68 callsubr
          vhcurveto
          hintmask 1011101111000000
          -14 callsubr
          279 -382 68 callsubr
          -14 callsubr
          endchar
        </CharString>
        <CharString name="period">
          -326 21 -21 100 88 callsubr
          hmoveto
          100 -100 -100 vlineto
          endchar
        </CharString>
        <CharString name="periodcentered">
          -241 294 -21 100 -20 hstem
          207 273 36 callsubr
          endchar
        </CharString>
        <CharString name="plus">
          -16 143 -21 166 67 callsubr
          122 rmoveto
          78 166 40 callsubr
          endchar
        </CharString>
        <CharString name="plusminus">
          -16 0 70 218 67 callsubr
          142 rmoveto
          78 146 40 callsubr
          244 -288 54 callsubr
          endchar
        </CharString>
        <CharString name="q">
          -23 71 callsubr
          66 439 60 -15 -20 hstemhm
          63 84 226 80 hintmask 11011100
          77 callsubr
          56 47 26 44 34 vhcurveto
          -240 80 720 -70 vlineto
          -3 -41 rlineto
          hintmask 11101100
          39 -30 -43 17 -48 hhcurveto
          -124 -72 -98 -188 hvcurveto
          61 callsubr
          51 58 77 31 36 -15 -35 31 hvcurveto
          -319 80 callsubr
        </CharString>
        <CharString name="question">
          -72 52 callsubr
          203 82 59 83 vstem
          134 574 rmoveto
          53 14 36 43 63 hhcurveto
          70 27 -45 -49 -43 -11 -33 -38 -41 hvcurveto
          -92 -100 rlineto
          -139 82 116 vlineto
          72 80 rlineto
          37 40 33 49 69 vvcurveto
          100 -69 61 -107 -94 -74 -50 -91 -26 vhcurveto
          242 -594 rmoveto
          105 -105 -105 vlineto
          endchar
        </CharString>
        <CharString name="questiondown">
          -72 -195 65 670 -20 hstem
          57 83 59 82 vstem
          350 -34 rmoveto
          -53 -14 -36 -43 -63 hhcurveto
          -70 -27 45 49 43 11 33 38 41 hvcurveto
          92 100 rlineto
          139 -82 -116 vlineto
          -72 -80 rlineto
          -37 -40 -33 -49 -69 vvcurveto
          -100 69 -61 107 94 74 50 91 26 vhcurveto
          -242 594 rmoveto
          -105 105 105 vlineto
          endchar
        </CharString>
        <CharString name="quotedbl">
          -156 523 -21 233 60 callsubr
          -140 rlineto
          50 hlineto
          175 141 rmoveto
          92 -100 -93 vlineto
          25 -140 rlineto
          50 hlineto
          endchar
        </CharString>
        <CharString name="quotedblbase">
          -148 -132 35 callsubr
          211 -22 callsubr
          -172 -22 callsubr
          endchar
        </CharString>
        <CharString name="quotedblleft">
          -139 509 35 callsubr
          340 736 14 callsubr
          -137 153 14 callsubr
          endchar
        </CharString>
        <CharString name="quotedblright">
          -148 10 callsubr
          128 -22 callsubr
          endchar
        </CharString>
        <CharString name="quoteleft">
          -298 509 35 callsubr
          181 736 14 callsubr
          endchar
        </CharString>
        <CharString name="quoteright">
          -298 10 callsubr
          endchar
        </CharString>
        <CharString name="quotesinglbase">
          -298 -132 35 callsubr
          61 -22 callsubr
          endchar
        </CharString>
        <CharString name="quotesingle">
          -306 503 -21 253 60 callsubr
          -160 rlineto
          50 hlineto
          endchar
        </CharString>
        <CharString name="r">
          76 callsubr
          hstemhm
          80 80 hintmask 11010000
          160 -25 callsubr
          hintmask 10110000
          6 callsubr
          hintmask 11010000
          63 callsubr
          endchar
        </CharString>
        <CharString name="rcaron">
          76 callsubr
          87 70 callsubr
          121 80 hintmask 11000100
          201 -25 callsubr
          hintmask 10100100
          6 callsubr
          hintmask 11000100
          63 callsubr
          hintmask 00011000
          117 4 callsubr
        </CharString>
        <CharString name="rcommaaccent">
          -224 82 callsubr
          476 64 13 56 callsubr
          hintmask 00110100
          160 -25 callsubr
          hintmask 00101100
          6 callsubr
          hintmask 00110100
          63 callsubr
          hintmask 11000000
          93 -149 -21 callsubr
        </CharString>
        <CharString name="registered">
          58 155 53 345 -20 149 53 hstem
          23 66 263 62 111 66 vstem
          591 445 rmoveto
          208 -156 82 -128 -128 -156 -82 -208 -208 156 -82 128 128 156 82 208 vhcurveto
          -66 hmoveto
          -171 -108 -66 -110 -110 -108 66 171 171 108 66 110 110 108 -66 -171 vhcurveto
          -98 -151 rmoveto
          -68 125 rlineto
          33 15 22 30 41 vvcurveto
          62 -48 33 -60 vhcurveto
          -89 -306 58 112 29 hlineto
          57 -112 rlineto
          -57 259 rmoveto
          30 18 -19 -29 -30 -18 -21 -27 hvcurveto
          -32 99 hlineto
          endchar
        </CharString>
        <CharString name="ring">
          -261 603 58 callsubr
          631 -69 callsubr
        </CharString>
        <CharString name="ring.cap">
          -261 715 58 callsubr
          743 -69 callsubr
        </CharString>
        <CharString name="s">
          -99 -10 66 437 62 hstem
          53 80 192 81 vstem
          217 -10 rmoveto
          110 79 66 98 86 -57 46 -88 26 hvcurveto
          -89 26 -39 19 0 callsubr
          -72 43 -48 94 -29 hvcurveto
          67 -21 68 -11 -77 vvcurveto
          -60 -53 -30 -53 -53 -45 30 43 -19 vhcurveto
          -70 -36 rlineto
          -67 36 60 -36 89 hhcurveto
          endchar
        </CharString>
        <CharString name="section">
          -16 -101 62 687 62 hstemhm
          84 77 -57 80 173 80 -57 77 hintmask 11010100
          457 309 rmoveto
          86 -57 42 -88 30 vhcurveto
          -89 30 -39 15 0 callsubr
          -53 23 -41 48 -28 hvcurveto
          hintmask 11101000
          -49 -27 -42 -42 -68 vvcurveto
          -86 57 -46 88 -26 vhcurveto
          96 -28 32 -17 -56 vvcurveto
          -55 -48 -25 -48 -58 -33 28 44 -19 vhcurveto
          -71 -30 rlineto
          -64 27 65 -40 88 hhcurveto
          90 87 53 98 52 -23 40 -49 29 hvcurveto
          hintmask 11100100
          49 27 43 42 69 vvcurveto
          -216 101 rmoveto
          74 -21 65 -17 -75 vvcurveto
          -51 -30 -26 -47 -22 vhcurveto
          -3 1 rlineto
          -75 22 -64 17 74 vvcurveto
          50 29 27 47 22 vhcurveto
          endchar
        </CharString>
        <CharString name="semicolon">
          -326 -131 -21 692 88 callsubr
          440 36 callsubr
          100 -439 rmoveto
          99 -100 -101 vlineto
          -23 -151 rlineto
          53 hlineto
          endchar
        </CharString>
        <CharString name="seven">
          -16 21 -21 630 70 hstem
          471 620 rmoveto
          80 -374 -70 298 vlineto
          -262 -630 rlineto
          88 hlineto
          endchar
        </CharString>
        <CharString name="six">
          -16 -10 63 329 63 278 -20 hstem
          82 80 233 81 vstem
          425 723 rmoveto
          -157 -43 -186 -122 -273 vvcurveto
          -187 62 -108 138 101 93 75 156 133 -52 91 -118 -55 -46 -24 -37 -34 vhcurveto
          35 167 129 77 115 35 rrcurveto
          -161 -281 rmoveto
          66 40 -47 -120 -129 -55 -33 -57 -83 -38 74 165 hvcurveto
          23 vlineto
          35 31 43 32 53 hhcurveto
          endchar
        </CharString>
        <CharString name="slash">
          83 callsubr
          -12 -85 rmoveto
          69 -15 220 805 -69 15 rlineto
          endchar
        </CharString>
        <CharString name="space">
          -256 endchar
        </CharString>
        <CharString name="sterling">
          -16 0 66 288 60 234 62 hstem
          148 83 vstem
          331 648 rmoveto
          60 27 -27 -55 23 hvcurveto
          74 26 rlineto
          78 -35 -55 40 -94 hhcurveto
          -95 -88 -59 -130 hvcurveto
          -107 -78 -60 78 -188 vlineto
          -66 -34 -31 -47 -3 vhcurveto
          -7 -66 412 66 -291 hlineto
          35 21 15 36 49 vvcurveto
          182 196 60 -196 105 vlineto
          88 42 41 58 vhcurveto
          endchar
        </CharString>
        <CharString name="t">
          -222 -6 67 414 65 130 -20 hstem
          100 80 vstem
          299 71 rmoveto
          -6 -21 -11 -4 -20 hhcurveto
          -41 -26 19 53 hvcurveto
          342 116 65 -116 130 -74 vlineto
          -5 -130 rlineto
          -76 hlineto
          -10 -65 rlineto
          85 -346 hlineto
          -83 46 -52 88 30 31 6 10 24 vhcurveto
          endchar
        </CharString>
        <CharString name="thorn">
          -28 71 callsubr
          60 439 66 181 87 callsubr
          221 84 vstem
          -1 callsubr
          -55 -48 -26 -44 -34 hvcurveto
          251 -80 -916 vlineto
          -19 callsubr
        </CharString>
        <CharString name="three">
          -16 -10 63 281 67 249 60 hstemhm
          366 82 -60 82 hintmask 11110000
          141 567 rmoveto
          41 15 42 42 61 hhcurveto
          63 44 -34 -86 -78 -48 -51 -61 hvcurveto
          -47 -67 44 hlineto
          hintmask 11101000
          70 64 -25 -109 -107 -69 -40 -61 -68 -36 38 37 -21 hvcurveto
          -63 -36 rlineto
          -65 38 66 -37 85 hhcurveto
          101 110 71 142 105 -70 57 -83 9 hvcurveto
          hintmask 11110000
          71 14 60 60 87 vvcurveto
          115 -85 60 -100 -78 -78 -38 -79 -33 vhcurveto
          endchar
        </CharString>
        <CharString name="threequarters">
          79 callsubr
          185 55 126 51 108 56 100 -20 hstemhm
          255 73 -73 86 300 66 hintmask 1111111011000000
          -37 callsubr
          -38 468 -5 callsubr
          hintmask 1111111101000000
          -41 callsubr
        </CharString>
        <CharString name="threesuperior">
          -216 414 55 126 51 108 56 hstemhm
          217 73 -73 86 hintmask 11101000
          167 469 -5 callsubr
          hintmask 11110000
          -41 callsubr
        </CharString>
        <CharString name="tilde">
          -206 622 81 callsubr
          656 -39 callsubr
        </CharString>
        <CharString name="tilde.cap">
          -206 782 81 callsubr
          816 -39 callsubr
        </CharString>
        <CharString name="two">
          -16 0 71 575 64 hstem
          390 82 vstem
          150 534 rmoveto
          72 19 45 40 64 hhcurveto
          80 32 -47 -71 -71 -28 -45 -73 -88 hvcurveto
          -206 -245 rlineto
          -79 380 71 -291 vlineto
          168 196 rlineto
          97 113 35 65 83 vvcurveto
          128 -87 54 -103 -105 -70 -58 -97 -33 vhcurveto
          endchar
        </CharString>
        <CharString name="twosuperior">
          -216 420 60 274 56 hstem
          224 76 vstem
          169 754 -49 callsubr
          endchar
        </CharString>
        <CharString name="u">
          51 callsubr
          hstemhm
          80 80 216 80 hintmask 10111000
          -86 callsubr
          hintmask 01111000
          4 -64 rlineto
          70 540 hlineto
          endchar
        </CharString>
        <CharString name="uacute">
          -67 callsubr
          -232 91 -56 callsubr
        </CharString>
        <CharString name="ucircumflex">
          51 callsubr
          91 -21 148 -92 callsubr
          -189 129 -73 callsubr
        </CharString>
        <CharString name="udieresis">
          51 callsubr
          135 -21 90 -92 callsubr
          -243 94 -85 callsubr
        </CharString>
        <CharString name="ugrave">
          -67 callsubr
          -269 215 -34 callsubr
        </CharString>
        <CharString name="underscore">
          -76 -120 68 hstem
          482 -120 rmoveto
          68 -484 -68 vlineto
          endchar
        </CharString>
        <CharString name="uni0001">
          endchar
        </CharString>
        <CharString name="uni0002">
          endchar
        </CharString>
        <CharString name="uni0003">
          endchar
        </CharString>
        <CharString name="uni0004">
          endchar
        </CharString>
        <CharString name="uni0005">
          endchar
        </CharString>
        <CharString name="uni0006">
          endchar
        </CharString>
        <CharString name="uni0007">
          endchar
        </CharString>
        <CharString name="uni0008">
          endchar
        </CharString>
        <CharString name="uni0009">
          endchar
        </CharString>
        <CharString name="uni0010">
          endchar
        </CharString>
        <CharString name="uni0011">
          endchar
        </CharString>
        <CharString name="uni0012">
          endchar
        </CharString>
        <CharString name="uni0013">
          endchar
        </CharString>
        <CharString name="uni0014">
          endchar
        </CharString>
        <CharString name="uni0015">
          endchar
        </CharString>
        <CharString name="uni0016">
          endchar
        </CharString>
        <CharString name="uni0017">
          endchar
        </CharString>
        <CharString name="uni0018">
          endchar
        </CharString>
        <CharString name="uni0019">
          endchar
        </CharString>
        <CharString name="uni00AD">
          22 callsubr
        </CharString>
        <CharString name="v">
          -91 29 callsubr
          373 540 rmoveto
          -140 -476 -137 476 rlineto
          -86 hlineto
          166 -540 rlineto
          111 hlineto
          168 540 rlineto
          endchar
        </CharString>
        <CharString name="w">
          164 29 callsubr
          621 540 rmoveto
          -101 -455 -105 455 rlineto
          -103 hlineto
          -106 -457 -104 457 rlineto
          -82 hlineto
          132 -540 rlineto
          103 hlineto
          106 450 107 -450 rlineto
          100 hlineto
          132 540 rlineto
          endchar
        </CharString>
        <CharString name="x">
          -56 29 callsubr
          447 540 rmoveto
          -82 hlineto
          -117 -193 -119 193 rlineto
          -96 hlineto
          168 -256 -181 -284 rlineto
          85 hlineto
          138 223 139 -223 rlineto
          98 hlineto
          -190 289 rlineto
          endchar
        </CharString>
        <CharString name="y">
          23 callsubr
          hstem
          -79 callsubr
          endchar
        </CharString>
        <CharString name="yacute">
          23 callsubr
          89 -21 167 -60 callsubr
          634 -56 callsubr
        </CharString>
        <CharString name="ydieresis">
          23 callsubr
          136 -21 90 -60 callsubr
          638 -85 callsubr
        </CharString>
        <CharString name="yen">
          -16 21 -21 155 60 80 59 346 -20 hstem
          236 75 vstem
          311 hmoveto
          155 149 60 -149 80 149 60 -113 vlineto
          161 345 rlineto
          -82 hlineto
          -151 -356 -149 356 rlineto
          -90 hlineto
          164 -346 rlineto
          -120 -59 156 -80 -156 -60 156 -155 hlineto
          endchar
        </CharString>
        <CharString name="z">
          -107 0 71 399 70 hstem
          399 458 rmoveto
          82 -340 -70 257 vlineto
          -276 -388 rlineto
          -82 349 71 -262 vlineto
          endchar
        </CharString>
        <CharString name="zero">
          -16 -10 63 584 63 hstem
          59 82 260 82 vstem
          141 344 rmoveto
          219 50 74 80 80 50 -74 -219 -219 -50 -72 -80 -80 -50 72 219 vhcurveto
          342 hmoveto
          269 -83 87 -129 -129 -83 -97 -259 -269 83 -85 129 129 83 95 259 vhcurveto
          endchar
        </CharString>
</ttFont>
